<svg id="svg" version="1.1" width="400" height="447.28213977566867" viewBox="0 0 400 447.28213977566867" xmlns="http://www.w3.org/2000/svg" xmlns:xlink="http://www.w3.org/1999/xlink" ><g id="svgg"><path id="path0" d="M148.189 1.649 C 147.216 2.545,145.600 3.978,144.597 4.832 C 143.595 5.686,142.216 6.872,141.534 7.468 C 140.852 8.064,137.110 11.304,133.218 14.667 C 129.327 18.030,125.988 20.959,125.798 21.176 C 125.608 21.393,124.754 22.133,123.900 22.821 C 123.046 23.509,121.773 24.596,121.073 25.237 C 120.372 25.878,118.982 27.101,117.984 27.955 C 113.439 31.843,105.036 39.148,104.530 39.651 C 104.221 39.957,103.141 40.906,102.130 41.760 C 99.609 43.891,94.590 48.245,94.063 48.759 C 93.826 48.991,92.807 49.879,91.801 50.733 C 90.794 51.588,89.412 52.774,88.730 53.369 C 83.475 57.954,75.604 64.796,74.911 65.380 C 74.447 65.771,73.737 66.402,73.335 66.782 C 72.932 67.161,71.915 68.035,71.073 68.723 C 70.231 69.410,68.969 70.497,68.269 71.138 C 67.568 71.779,66.178 73.003,65.179 73.857 C 60.635 77.745,52.232 85.050,51.725 85.552 C 51.417 85.858,50.337 86.808,49.326 87.662 C 46.805 89.792,41.786 94.146,41.259 94.660 C 41.021 94.892,40.003 95.781,38.997 96.635 C 37.990 97.489,36.608 98.675,35.926 99.270 C 30.671 103.855,22.799 110.697,22.107 111.281 C 21.642 111.673,20.933 112.304,20.531 112.683 C 20.128 113.063,19.110 113.936,18.269 114.624 C 17.427 115.312,16.165 116.399,15.464 117.040 C 14.764 117.681,13.372 118.904,12.372 119.758 C 11.373 120.613,8.146 123.408,5.203 125.971 L -0.148 130.630 49.710 130.802 L 99.569 130.975 99.590 138.913 C 99.613 147.283,99.892 150.249,101.343 157.550 C 102.577 163.763,105.634 172.239,108.623 177.739 C 110.201 180.642,113.096 185.344,113.511 185.677 C 113.629 185.772,114.149 186.504,114.667 187.303 C 119.387 194.586,128.924 203.206,140.653 210.791 C 141.376 211.258,148.576 214.801,151.187 215.974 C 156.240 218.244,165.278 220.689,171.872 221.569 C 173.486 221.785,175.272 222.047,175.841 222.151 C 176.411 222.256,180.759 222.390,185.505 222.449 C 193.243 222.546,196.185 222.418,201.639 221.748 L 203.278 221.547 202.569 223.346 C 195.156 242.153,198.093 258.596,212.127 276.850 C 212.955 277.927,213.632 278.880,213.632 278.967 C 213.632 279.053,212.274 279.232,210.613 279.362 C 208.952 279.493,207.204 279.654,206.730 279.721 C 206.255 279.787,204.625 279.938,203.106 280.057 C 186.375 281.359,167.232 284.422,153.562 287.985 C 149.681 288.996,145.729 290.058,144.780 290.345 C 143.831 290.631,141.928 291.193,140.552 291.594 C 129.961 294.680,111.058 304.078,106.724 308.412 C 106.463 308.673,106.144 308.889,106.015 308.892 C 105.886 308.896,105.277 309.323,104.661 309.842 C 104.045 310.361,103.051 311.173,102.452 311.648 C 98.573 314.720,92.841 320.459,89.905 324.208 C 89.336 324.936,88.515 325.940,88.082 326.441 C 87.013 327.676,83.175 333.272,83.175 333.595 C 83.175 333.737,82.947 334.106,82.668 334.414 C 82.153 334.984,78.509 342.038,77.759 343.919 C 76.246 347.712,75.766 349.156,74.894 352.540 C 73.000 359.885,72.124 374.362,73.281 379.175 C 73.379 379.585,73.567 380.672,73.697 381.591 C 75.022 390.921,80.513 403.248,86.434 410.181 C 86.920 410.751,87.643 411.596,88.041 412.060 C 88.439 412.524,89.167 413.432,89.660 414.078 C 90.559 415.256,95.299 419.586,97.107 420.880 C 98.033 421.543,99.110 422.379,99.979 423.111 C 100.338 423.413,105.935 427.035,107.852 428.206 C 110.200 429.640,115.881 432.579,118.378 433.651 C 119.991 434.344,121.834 435.148,122.473 435.437 C 126.162 437.108,134.201 439.879,139.948 441.460 C 140.708 441.669,141.717 441.977,142.192 442.143 C 152.702 445.837,183.944 448.307,201.553 446.836 C 211.779 445.981,225.757 443.623,233.822 441.393 C 235.910 440.815,238.473 440.111,239.517 439.827 C 250.936 436.730,274.950 426.416,278.888 422.917 C 279.188 422.651,279.562 422.433,279.718 422.433 C 279.875 422.433,280.513 422.045,281.135 421.570 C 281.757 421.096,282.373 420.708,282.503 420.708 C 282.763 420.708,288.248 416.934,288.525 416.565 C 288.619 416.438,288.948 416.192,289.254 416.019 C 294.405 413.098,310.227 395.441,312.727 389.823 C 312.897 389.441,313.427 388.507,313.906 387.748 C 314.814 386.307,317.392 381.194,318.094 379.443 C 318.317 378.886,318.755 377.808,319.067 377.049 C 320.827 372.764,322.922 365.358,323.534 361.260 C 324.612 354.038,324.763 352.086,324.763 345.337 C 324.763 326.610,320.475 313.164,309.232 296.633 C 305.506 291.155,300.282 285.637,293.222 279.724 C 292.315 278.965,291.082 277.900,290.481 277.359 C 288.446 275.527,280.983 269.612,275.237 265.277 C 273.339 263.845,271.631 262.546,271.441 262.391 C 248.254 243.394,243.504 232.342,252.063 217.300 C 252.591 216.372,255.761 212.120,257.370 210.181 C 259.100 208.096,267.136 200.121,269.889 197.757 C 277.170 191.504,288.203 180.393,290.557 176.942 C 290.841 176.527,291.179 176.109,291.308 176.014 C 295.114 173.216,304.214 151.963,305.568 142.709 C 308.799 120.631,305.801 100.269,297.240 86.145 C 296.118 84.294,296.058 84.072,296.582 83.689 C 296.899 83.457,297.817 82.715,298.622 82.040 C 299.427 81.365,304.124 77.509,309.060 73.470 C 313.995 69.432,318.211 65.964,318.429 65.765 C 318.647 65.565,319.346 64.985,319.982 64.476 C 322.770 62.244,325.848 59.707,326.268 59.293 C 326.519 59.046,327.245 58.456,327.882 57.981 C 328.518 57.506,329.513 56.716,330.093 56.225 C 330.673 55.733,331.517 55.034,331.969 54.671 C 332.420 54.309,333.141 53.701,333.571 53.322 C 334.001 52.942,334.945 52.166,335.669 51.596 C 337.305 50.310,344.810 44.169,345.349 43.676 C 345.567 43.476,346.266 42.903,346.902 42.401 C 347.538 41.899,349.456 40.341,351.165 38.940 C 352.873 37.539,355.940 35.026,357.981 33.354 L 361.691 30.316 361.691 39.925 L 361.691 49.535 359.904 49.959 C 357.608 50.505,356.063 51.576,355.066 53.316 L 354.271 54.702 354.271 134.771 L 354.271 214.840 355.041 216.739 C 356.169 219.520,358.506 222.009,361.266 223.367 L 363.575 224.504 369.277 224.504 C 377.906 224.504,382.182 221.832,383.913 215.358 C 384.572 212.896,384.741 58.245,384.088 55.204 C 383.439 52.174,380.400 49.698,377.333 49.698 L 376.531 49.698 376.531 34.018 L 376.531 18.338 378.170 17.021 C 379.072 16.296,379.978 15.548,380.184 15.358 C 380.390 15.168,380.990 14.702,381.516 14.323 C 382.750 13.433,389.352 8.266,389.867 7.786 C 390.083 7.585,390.694 7.110,391.225 6.730 C 392.754 5.637,398.740 0.998,399.297 0.475 C 399.726 0.072,380.894 0.001,274.880 0.009 L 149.957 0.018 148.189 1.649 M203.279 54.706 C 214.462 57.091,224.445 63.498,232.787 73.645 C 233.546 74.569,234.323 75.501,234.513 75.716 C 235.799 77.176,242.278 86.114,242.278 86.429 C 242.278 86.506,242.983 87.762,243.845 89.220 C 255.748 109.352,263.137 144.382,259.570 163.762 C 257.891 172.885,255.895 178.675,252.572 184.065 C 251.656 185.551,250.906 186.831,250.906 186.909 C 250.906 186.986,250.681 187.323,250.405 187.658 C 250.129 187.992,249.236 189.136,248.420 190.199 C 246.269 193.003,244.766 194.599,242.439 196.549 C 241.306 197.498,240.302 198.353,240.207 198.450 C 238.486 200.203,230.280 204.075,226.057 205.126 C 206.129 210.086,186.963 204.226,174.303 189.302 C 173.820 188.733,173.115 187.947,172.735 187.556 C 172.355 187.164,171.634 186.310,171.131 185.657 C 170.628 185.004,169.921 184.159,169.559 183.779 C 159.450 173.172,149.140 147.161,146.851 126.488 C 146.746 125.539,146.525 123.520,146.359 122.002 C 145.787 116.757,145.974 104.472,146.698 99.741 C 148.136 90.345,149.788 85.487,154.676 76.273 C 163.564 59.518,183.780 50.547,203.279 54.706 M232.269 295.356 C 233.573 296.005,239.225 300.049,252.974 310.171 C 255.770 312.229,255.666 312.147,257.118 313.407 C 257.783 313.984,259.180 315.105,260.223 315.899 C 262.400 317.556,262.305 317.475,266.340 321.139 C 268.013 322.657,270.352 325.072,271.539 326.504 C 272.725 327.937,274.121 329.577,274.639 330.149 C 280.908 337.061,283.620 341.714,286.386 350.302 C 293.541 372.525,286.951 395.469,269.888 407.737 C 263.174 412.563,253.068 417.554,245.913 419.574 C 244.958 419.844,243.632 420.219,242.968 420.406 C 214.090 428.561,178.056 424.140,149.957 408.995 C 142.036 404.726,134.142 397.532,129.105 389.991 C 113.376 366.446,117.324 335.914,138.485 317.451 C 139.859 316.253,141.061 315.175,141.156 315.057 C 141.499 314.631,147.253 311.018,149.784 309.640 C 157.756 305.301,171.217 300.644,183.346 298.030 C 188.828 296.848,188.749 296.862,194.478 296.112 C 197.325 295.740,200.198 295.360,200.863 295.268 C 201.527 295.177,203.857 294.999,206.040 294.873 C 208.223 294.747,210.086 294.571,210.181 294.482 C 210.868 293.839,230.805 294.628,232.269 295.356 " stroke="none" fill="#7c7c7c" fill-rule="evenodd"></path><path id="path1" d="M376.691 33.995 C 376.691 42.726,376.735 46.249,376.790 41.823 C 376.845 37.396,376.845 30.252,376.790 25.947 C 376.735 21.642,376.690 25.263,376.691 33.995 " stroke="none" fill="#807c7c" fill-rule="evenodd"></path><path id="path2" d="M376.691 33.995 C 376.691 42.726,376.735 46.249,376.790 41.823 C 376.845 37.396,376.845 30.252,376.790 25.947 C 376.735 21.642,376.690 25.263,376.691 33.995 " stroke="none" fill="#807c7c" fill-rule="evenodd"></path><path id="path3" d="M376.691 33.995 C 376.691 42.726,376.735 46.249,376.790 41.823 C 376.845 37.396,376.845 30.252,376.790 25.947 C 376.735 21.642,376.690 25.263,376.691 33.995 " stroke="none" fill="#807c7c" fill-rule="evenodd"></path><path id="path4" d="M376.691 33.995 C 376.691 42.726,376.735 46.249,376.790 41.823 C 376.845 37.396,376.845 30.252,376.790 25.947 C 376.735 21.642,376.690 25.263,376.691 33.995 " stroke="none" fill="#807c7c" fill-rule="evenodd"></path></g></svg>